<?xml version="1.0" encoding="UTF-8" standalone="no"?>
<!DOCTYPE svg PUBLIC "-//W3C//DTD SVG 1.1//EN" "http://www.w3.org/Graphics/SVG/1.1/DTD/svg11.dtd">
<svg version="1.1" xmlns="http://www.w3.org/2000/svg" xmlns:xlink="http://www.w3.org/1999/xlink" preserveAspectRatio="xMidYMid meet" viewBox="0 0 1200 1200" width="1200" height="1200"><defs><path d="M798.95 649.22C798.95 649.22 731.36 689.99 855.94 752.73C855.94 752.73 883.38 701.77 853.04 660.23C840.85 643.47 818.05 638.47 799.96 648.6C799.76 648.73 799.16 649.1 798.95 649.22Z" id="d7PdHGpSg"></path><path d="M799.73 648.36C799.73 648.36 857.57 692.61 855.94 752.73" id="dlebZBGL"></path><path d="M18.55 661.21C18.55 661.21 -49.05 701.98 75.54 764.72C75.54 764.72 102.98 713.76 72.64 672.23C60.45 655.46 37.64 650.46 19.56 660.59C19.36 660.72 18.75 661.09 18.55 661.21Z" id="bd7elml0D"></path><path d="M19.33 660.35C19.33 660.35 77.17 704.6 75.54 764.72" id="b7xro9eLS2"></path><path d="M859.26 758.5C859.26 758.5 838.08 686.55 863.25 633.68C873.94 611.56 877.17 586.56 872.44 562.44C870.07 551.01 866.66 539.82 862.25 529.01" id="a1xQ5AcSf5"></path><path d="M861.95 529.93C861.95 529.93 845.96 504.38 845.96 495.57C846.54 486.76 854.16 480.09 862.97 480.67C870.96 481.2 877.33 487.57 877.86 495.57C877.93 504.38 865.13 523.06 861.95 529.93Z" id="b1YU5Afd9s"></path><path d="M872.24 564.55C872.24 564.55 872.74 534.43 877.52 527.04C882.8 519.96 892.82 518.49 899.9 523.77C906.33 528.56 908.21 537.38 904.3 544.38C899.52 551.77 878.65 560.51 872.24 564.55Z" id="f30jAGLOQP"></path><path d="M865.29 629.01C865.29 629.01 880.92 603.26 888.79 599.29C896.92 595.84 906.31 599.63 909.76 607.76C912.9 615.14 910.07 623.71 903.16 627.78C895.29 631.78 872.87 628.76 865.29 629.01Z" id="diVbeBaOs"></path><path d="M850.95 698.3C850.95 698.3 862.01 670.32 869.09 665.03C876.5 660.23 886.4 662.36 891.2 669.77C895.57 676.53 894.23 685.49 888.08 690.68C880.98 695.93 858.38 696.77 850.95 698.3Z" id="c2Cv6ovZY2"></path><path d="M874.5 578.76C874.5 578.76 867.28 549.51 860.97 543.37C854.24 537.66 844.15 538.47 838.43 545.2C833.24 551.31 833.37 560.31 838.73 566.26C845.05 572.39 867.34 576.26 874.5 578.76Z" id="b6QGCXYb7z"></path><path d="M859.9 641.28C859.9 641.28 844.27 615.53 836.39 611.56C828.79 607.08 818.99 609.61 814.5 617.21C810.02 624.82 812.55 634.62 820.16 639.11C820.76 639.46 821.38 639.78 822.03 640.05C829.9 644.05 852.32 641.03 859.9 641.28Z" id="fPtHqy3gZ"></path><path d="M852.75 721.61C852.75 721.61 841.7 693.63 834.62 688.34C827.86 682.65 817.78 683.52 812.09 690.27C806.4 697.02 807.26 707.11 814.01 712.8C814.53 713.23 815.07 713.63 815.63 713.99C822.73 719.24 845.33 720.08 852.75 721.61Z" id="dfbbPI1DW"></path><path d="M861.95 529.93C861.95 529.93 845.96 504.38 845.96 495.57C846.54 486.76 854.16 480.09 862.97 480.67C870.96 481.2 877.33 487.57 877.86 495.57C877.93 504.38 865.13 523.06 861.95 529.93Z" id="f1fKrWcw6g"></path><path d="M872.24 564.55C872.24 564.55 872.74 534.43 877.52 527.04C882.8 519.96 892.82 518.49 899.9 523.77C906.33 528.56 908.21 537.38 904.3 544.38C899.52 551.77 878.65 560.51 872.24 564.55Z" id="g73ruFOmJ"></path><path d="M865.29 629.01C865.29 629.01 880.92 603.26 888.79 599.29C896.92 595.84 906.31 599.63 909.76 607.76C912.9 615.14 910.07 623.71 903.16 627.78C895.29 631.78 872.87 628.76 865.29 629.01Z" id="dP1nqNNp7"></path><path d="M850.95 698.3C850.95 698.3 862.01 670.32 869.09 665.03C876.5 660.23 886.4 662.36 891.2 669.77C895.57 676.53 894.23 685.49 888.08 690.68C880.98 695.93 858.38 696.77 850.95 698.3Z" id="b6mgmj1UOR"></path><path d="M874.5 578.76C874.5 578.76 867.28 549.51 860.97 543.37C854.24 537.66 844.15 538.47 838.43 545.2C833.24 551.31 833.37 560.31 838.73 566.26C845.05 572.39 867.34 576.26 874.5 578.76Z" id="aaGnlpkeA"></path><path d="M859.9 641.28C859.9 641.28 844.27 615.53 836.39 611.56C828.79 607.08 818.99 609.61 814.5 617.21C810.02 624.82 812.55 634.62 820.16 639.11C820.76 639.46 821.38 639.78 822.03 640.05C829.9 644.05 852.32 641.03 859.9 641.28Z" id="ack3DdZ2b"></path><path d="M852.75 721.61C852.75 721.61 841.7 693.63 834.62 688.34C827.86 682.65 817.78 683.52 812.09 690.27C806.4 697.02 807.26 707.11 814.01 712.8C814.53 713.23 815.07 713.63 815.63 713.99C822.73 719.24 845.33 720.08 852.75 721.61Z" id="d2OaEi9CF"></path><path d="M908.22 759.87C908.22 759.87 887.05 687.92 912.22 635.05C922.91 612.92 926.13 587.92 921.4 563.81C919.07 552.38 915.69 541.19 911.32 530.37" id="acACPGvah"></path><path d="M910.95 531.29C910.95 531.29 894.96 505.74 894.96 496.93C895.54 488.12 903.16 481.45 911.97 482.03C919.97 482.56 926.34 488.93 926.87 496.93C926.94 505.74 914.13 524.42 910.95 531.29Z" id="a14pZXvUzV"></path><path d="M921.21 565.88C921.21 565.88 921.71 535.76 926.5 528.37C931.77 521.28 941.79 519.82 948.87 525.1C955.3 529.89 957.19 538.71 953.28 545.71C948.52 553.14 927.62 561.84 921.21 565.88Z" id="c2jfHOtYQM"></path><path d="M914.32 630.38C914.32 630.38 929.95 604.63 937.83 600.66C945.96 597.23 955.34 601.04 958.77 609.18C961.88 616.54 959.07 625.07 952.19 629.15C944.32 633.15 921.9 630.13 914.32 630.38Z" id="a5wq2pZx2a"></path><path d="M899.96 699.66C899.96 699.66 911.01 671.69 918.09 666.4C925.51 661.6 935.4 663.73 940.2 671.14C944.57 677.9 943.24 686.86 937.08 692.05C929.98 697.3 907.38 698.14 899.96 699.66Z" id="a7z5Ir3D4"></path><path d="M923.5 580.13C923.5 580.13 916.28 550.88 909.97 544.74C903.24 539.02 893.15 539.84 887.43 546.57C882.24 552.67 882.37 561.67 887.74 567.63C894.05 573.76 916.35 577.63 923.5 580.13Z" id="e1l4p1GBM"></path><path d="M908.89 642.65C908.89 642.65 893.23 616.9 885.4 612.93C877.27 609.48 867.88 613.27 864.43 621.4C861.3 628.78 864.12 637.35 871.03 641.42C878.89 645.42 901.32 642.4 908.89 642.65Z" id="i1MQIJCIy"></path><path d="M901.74 722.98C901.74 722.98 890.69 695 883.61 689.71C876.86 684.02 866.77 684.89 861.08 691.64C855.39 698.39 856.25 708.48 863.01 714.17C863.52 714.6 864.06 715 864.62 715.36C871.72 720.61 894.32 721.45 901.74 722.98Z" id="h20HdRipDt"></path><path d="M1082.76 777.03C1082.76 795.24 844.31 810 550.16 810C256.02 810 17.57 795.24 17.57 777.03C17.57 758.81 256.02 744.05 550.16 744.05C844.31 744.05 1082.76 758.81 1082.76 777.03Z" id="a1XVGIscZH"></path><path d="M652.12 202.09C649.01 199.09 646.07 196.09 643.56 193.56C638.74 188.74 632.56 185.5 625.85 184.28C602.7 179.89 579.03 165.66 579.03 165.66C579.03 165.66 579.03 165.66 579.03 165.66C578.9 165.49 578.77 165.34 578.65 165.16C576.65 162.36 575.17 159.21 574.31 155.87C574.18 155.38 574.05 154.87 573.94 154.35C574.5 153.63 574.92 153.03 575.02 152.88C575.43 152.74 575.82 152.56 576.19 152.35C579.12 150.68 580.77 147.6 581.88 144.56C582.88 141.87 583.68 138.9 586.06 137.16C586.91 136.68 587.67 136.07 588.32 135.35C588.81 134.39 588.99 133.32 588.85 132.26C588.85 125.43 587.76 120.2 589.35 113.54C591.89 102.89 594.22 89.56 586.18 81.66C582.02 77.65 576.73 75.01 571.03 74.11C565.86 73.29 558.22 80.33 552.98 80.11C539.64 79.6 528.4 67.57 515.72 71.46C510.2 73.13 505.39 76.58 502.03 81.27C495.78 90.18 496.37 101.71 497.27 112.34C497.26 113.15 497.5 113.95 497.96 114.61C498.43 115.16 499.18 115.45 499.64 116C500.13 116.73 500.32 117.62 500.16 118.49C500.02 120.21 499.6 121.9 498.92 123.49C498.57 124.02 498.5 124.7 498.73 125.29C498.98 125.62 499.33 125.86 499.73 125.97C500.27 126.15 500.82 126.29 501.38 126.36C501.29 127.24 501.21 128.12 501.18 129.01C501.18 129.51 501.18 130.01 501.18 130.52C501.23 143.71 507.92 155.99 518.99 163.18C519.1 163.89 519.22 164.63 519.33 165.4C519.67 167.77 519.98 170.4 520.21 173.26C520.21 173.78 520.29 174.26 520.33 174.83C520.31 174.79 520.22 174.61 520.06 174.28C494.28 186.91 479.95 193.94 477.09 195.34C473.91 196.07 470.95 197.53 468.43 199.59C468.37 199.62 468.09 199.76 467.58 200.01C467.58 200.16 467.58 200.24 467.58 200.26C467.22 200.55 466.86 200.86 466.5 201.2L429.22 159.09L342.28 234.55L390.09 286.02C422.32 283.34 440.22 281.84 443.81 281.54C441.16 299.73 439.35 313.67 439.35 313.67C439.35 313.67 429.53 355.77 477.11 347.71C476.8 374.26 465.43 418.57 465.43 418.57C466.75 420.3 468.31 421.84 470.06 423.14C470.04 423.26 469.95 423.86 469.79 424.94C467.99 437.16 466.99 443.94 466.79 445.3C466.79 445.3 448.94 494.74 446.2 538.84C446.2 538.84 440.03 607.65 440.03 607.65C439.62 613.54 437.56 642.94 433.85 695.86C428.64 720.05 425.75 733.5 425.17 736.19C410.87 751.83 394.21 765.15 375.81 775.66C372.43 777.45 371.15 781.63 372.94 785.01C372.96 785.05 372.99 785.09 373.01 785.13C376.53 791.18 387.35 797.47 420.12 787.4C472.28 771.41 467.48 772.03 467.48 772.03C467.48 772.03 468.25 750.63 466.03 737.94C465.96 737.56 465.89 737.19 465.82 736.82C478.31 722.74 472.27 699.84 472.27 699.84C472.27 699.84 496.97 651.74 485.26 620.34C485.26 620.34 482.52 593.61 496.93 580.92C497.13 580.74 497.34 580.54 497.55 580.33C497.57 580.31 497.63 580.25 497.74 580.13L498.21 579.63L498.42 579.4L498.97 578.76C499.04 578.67 499.08 578.63 499.09 578.62C499.31 578.35 499.54 578.06 499.77 577.76C499.78 577.74 499.84 577.66 499.95 577.52L500.53 576.87L500.75 576.55L501.29 575.76L501.47 575.5L502.2 574.39L502.34 574.17L502.95 573.17L503.18 572.79L503.74 571.85L503.95 571.49L504.72 570.15L504.72 570.15L505.49 568.77L505.71 568.36L506.3 567.28L506.53 566.84L507.24 565.49L507.33 565.32L508.15 563.72L508.35 563.33L508.99 562.06L509.23 561.58L509.89 560.22L510.06 559.88L510.9 558.13L511.04 557.84L511.74 556.35L511.98 555.84L512.63 554.46L512.84 554.01L513.7 552.14L513.7 552.14L514.53 550.29L514.76 549.78L515.41 548.31L515.63 547.8L516.52 545.89L516.52 545.81L517.39 543.81L517.58 543.38L518.26 541.81L518.49 541.28L519.2 539.59L519.34 539.27L520.2 537.27L520.34 536.94L521.05 535.24L521.28 534.69L521.93 533.1L522.12 532.64L522.94 530.64L523.01 530.47L523.76 528.63L523.99 528.06L524.6 526.54L524.82 525.99L525.54 524.17L525.61 523.98L526.39 521.98L526.62 521.4L527.18 519.97L527.42 519.34L528.01 517.82L528.18 517.37L528.91 515.49L529.11 514.97L529.64 513.59L529.91 512.89L530.38 511.67L530.63 511.01L531.29 509.26L531.48 508.75L531.96 507.47L532.23 506.76L532.63 505.69L532.9 504.96L533.35 503.75L533.64 502.98L534.09 501.76L534.38 500.98L534.69 500.14L534.98 499.34L535.23 498.65L535.89 496.83L536 496.52L536.31 495.66L536.52 495.09L536.84 494.22C536.93 493.98 536.98 493.84 536.99 493.81C539.86 485.91 541.62 480.82 541.62 480.82C541.62 480.82 554.61 526.26 552.61 540.29C550.61 554.32 564.96 606.44 564.96 606.44C564.96 606.44 556.73 658.56 561.54 671.25C566.34 683.94 554.67 731.38 554.67 731.38C554.67 731.38 555.56 731.87 557.07 732.62C557.06 732.75 556.99 733.78 556.98 733.91C556.23 744.34 554.6 764.38 552.61 772.14C549.86 782.83 551.24 794.19 573.2 792.85C595.15 791.51 595.84 778.15 595.84 778.15C595.84 778.15 588.59 754.79 587.7 741.01C587.7 740.56 587.7 740.12 587.65 739.69C587.65 739.69 587.65 739.69 587.65 739.69L588.26 739.46C588.37 739.42 588.43 739.4 588.44 739.39C588.69 739.28 588.93 739.17 589.16 739.05C589.16 739.05 589.16 739.05 589.16 739.05C589.38 738.93 589.58 738.81 589.79 738.68C589.81 738.67 589.96 738.58 589.97 738.56C590.15 738.44 590.32 738.32 590.48 738.18C590.55 738.13 590.59 738.09 590.6 738.09C590.8 737.92 590.99 737.75 591.17 737.57C591.25 737.49 591.29 737.44 591.3 737.44C591.44 737.28 591.58 737.13 591.71 736.97C591.8 736.86 591.84 736.8 591.85 736.79C592.01 736.58 592.17 736.36 592.32 736.12C599.87 724.13 600.56 698.7 600.56 698.7C600.56 698.7 615.65 613.17 610.17 601.77C604.68 590.37 607.42 563.69 607.42 563.69C607.42 563.69 601.24 523.6 608.11 504.22C613.25 489.72 616.46 439.61 616.31 415.64C616.31 414.89 616.31 414.32 616.31 414.17C616.31 414 616.31 413.83 616.31 413.66C621.43 407.31 625.31 396.16 622.55 376.61C622.39 375.5 622.27 374.38 622.15 373.24C629.94 367.42 637.64 360.57 637.64 360.57C637.81 360.39 638.7 359.48 640.29 357.84C640.8 357.31 641.09 357.02 641.14 356.96C641.88 357.27 642.66 357.55 643.47 357.8C646.47 359.16 648.61 359.91 648.61 359.91C648.61 359.91 687.73 327.84 717.24 312.47C746.74 297.1 722.8 268.9 722.8 268.9C708.66 255.54 661.04 210.78 652.12 202.09ZM627.43 336.39C627 337.14 626.66 337.94 626.44 338.77C626.37 338.8 626.04 338.94 625.44 339.19L625.44 339.19C624.68 339.48 624.26 339.64 624.18 339.67C630.48 303.7 647.36 268.23 647.36 268.23C647.36 268.23 660.35 279.6 669.34 284.22C678.34 288.85 676.14 296.97 676.14 296.97C676.14 296.96 634.96 323.06 627.43 336.39Z" id="c15URVpHTD"></path><linearGradient id="gradientjH1NnKDnw" gradientUnits="userSpaceOnUse" x1="537.17" y1="792.85" x2="537.17" y2="70.73"><stop style="stop-color: #808080;stop-opacity: 0.25" offset="0%"></stop><stop style="stop-color: #808080;stop-opacity: 0.12" offset="54%"></stop><stop style="stop-color: #808080;stop-opacity: 0.1" offset="100%"></stop></linearGradient><path d="M378.87 781.01C377.08 777.67 378.28 773.51 381.57 771.63C399.54 761.07 415.73 747.73 429.54 732.12C433.05 728.12 434.9 725.67 434.9 725.67C434.9 725.67 459.39 721.04 465.35 725.67C466.84 726.83 467.88 730.07 468.59 734.27C470.72 746.84 469.99 768.04 469.99 768.04C469.99 768.04 474.62 767.37 424.32 783.26C392.7 793.25 382.26 787.02 378.87 781.01Z" id="b1cToaRXZ"></path><path d="M571.92 788.55C571.92 788.55 549.41 778.61 552.06 768.03C553.98 760.36 555.55 740.5 556.27 730.16C556.54 726.23 556.69 723.69 556.69 723.69C556.69 723.69 589.78 720.38 586.48 729.68C585.82 732.14 585.64 734.7 585.92 737.24C586.78 750.86 593.76 773.99 593.76 773.99C589.39 776.9 593.1 787.23 571.92 788.55Z" id="coSbMN18Y"></path><path d="M467.97 734.95C455.39 748.85 428.92 734.95 428.92 734.95C428.98 734.67 429.45 732.41 429.51 732.13C433.02 728.13 434.87 725.68 434.87 725.68C434.87 725.68 459.36 721.05 465.32 725.68C466.85 726.83 467.89 730.07 468.56 734.27C468.44 734.4 468.03 734.88 467.97 734.95Z" id="l1rkYqu9QK"></path><path d="M585.91 737.2C577.25 740.19 561.92 733.1 556.26 730.2C556.53 726.27 556.68 723.73 556.68 723.73C556.68 723.73 589.79 720.38 586.47 729.64C585.81 732.1 585.63 734.66 585.91 737.2Z" id="b1stAmSj33"></path><path d="M598.4 695.18C598.4 695.18 597.74 720.33 590.45 732.24C583.17 744.15 554.05 727.6 554.05 727.6C554.05 727.6 565.3 680.64 560.67 668.03C556.03 655.42 563.97 603.85 563.97 603.85C563.97 603.85 550.07 552.22 552.06 538.32C554.05 524.42 541.47 479.36 541.47 479.36C541.47 479.36 512.34 566.08 498.44 578.65C484.54 591.22 487.19 617.7 487.19 617.7C498.44 648.8 474.61 696.47 474.61 696.47C474.61 696.47 480.61 719.63 468 733.53C455.39 747.43 428.95 733.53 428.95 733.53C429.52 730.8 432.4 717.15 437.58 692.58C441.18 640.16 443.18 611.03 443.58 605.21C443.58 605.21 446.88 580.72 449.57 537.03C449.57 537.03 469.43 444.36 469.43 444.36C469.62 443.02 470.58 436.29 472.3 424.2C473.75 414.05 474.56 408.42 474.72 407.29C474.72 407.29 609.09 402.65 612.4 401.99C613.23 401.82 613.65 406.88 613.69 414.84C613.83 438.59 610.69 488.22 605.77 502.6C599.16 521.79 605.11 561.55 605.11 561.55C605.11 561.55 602.36 588 607.66 599.25C612.96 610.5 600.25 675.99 598.4 695.18Z" id="a1yqIZ8IEi"></path><path d="M491.17 578.73C491.17 578.73 479.92 617.78 479.92 617.78C491.17 648.88 467.34 696.55 467.34 696.55C467.34 696.55 473.33 719.71 460.72 733.61C457.53 737.05 453.18 739.18 448.51 739.6C455.51 740.33 462.89 739.27 468 733.61C480.58 719.71 474.61 696.55 474.61 696.55C474.61 696.55 498.44 648.89 487.19 617.78C487.19 617.78 484.54 591.3 498.44 578.73C509.13 569.06 528.78 515.67 537.32 491.42C535.56 484.35 534.2 479.44 534.2 479.44C525.59 499.3 505.07 566.16 491.17 578.73Z" id="g1yluYtrnL"></path><path d="M605.67 502.57C610.67 488.19 613.73 438.56 613.59 414.81C613.59 406.82 613.13 401.82 612.3 401.96C611.89 402.04 609.42 402.19 605.43 402.38C605.99 403.74 606.27 408.3 606.31 414.82C606.46 438.57 603.31 488.2 598.4 502.58C591.78 521.77 597.74 561.53 597.74 561.53C597.74 561.53 595.09 588.01 600.39 599.26C605.68 610.51 591.12 695.19 591.12 695.19C591.12 695.19 590.46 720.34 583.18 732.25C581.82 734.39 579.61 735.85 577.1 736.25C582.77 737.09 587.92 736.39 590.45 732.25C597.74 720.34 598.4 695.19 598.4 695.19C598.4 695.19 612.96 610.46 607.66 599.26C602.36 588.06 605.01 561.52 605.01 561.52C605.14 549.73 599.02 521.81 605.67 502.57Z" id="e2PDFFVjj3"></path><path d="M583.17 220.64C583.17 220.64 509.69 236.53 517.64 210.71C521.4 198.49 521.64 185.37 520.77 174.95C520.54 172.13 520.25 169.51 519.92 167.16C519.38 163.11 518.62 159.08 517.64 155.11C517.64 155.11 574.6 112.08 571.92 141.21C571.3 146.72 571.66 152.29 572.97 157.67C573.8 160.96 575.22 164.08 577.16 166.87C581.85 173.49 587.8 174.98 587.8 174.98C586.88 184.11 583.63 216.07 583.17 220.64Z" id="a60gGYc1Ji"></path><path d="M571.32 159.79C558.54 174.93 536.45 178.11 519.92 167.18C519.38 163.13 518.62 159.1 517.64 155.13C517.64 155.13 574.6 112.1 571.92 141.23C571.31 146.73 571.67 152.3 572.98 157.68C572.45 158.4 571.89 159.11 571.32 159.79Z" id="a2Gqv7UwP"></path><path d="M541.47 171.66C519.9 171.66 502.42 154.18 502.42 132.61C502.42 132.11 502.42 131.61 502.42 131.11C503.26 109.56 521.42 92.77 542.97 93.62C563.91 94.44 580.47 111.65 580.49 132.61C580.52 154.18 563.04 171.66 541.47 171.66Z" id="aIUuwxss"></path><path d="M599.72 423.19C597.69 423.9 587.55 427.44 569.3 433.83L569.23 433.83L560.01 437.06L556.14 427.54L551.4 415.87C551.4 428.58 551.4 435.64 551.4 437.06C551.4 437.06 493.29 441.05 472.2 424.18C472.45 422.48 474.38 408.96 474.62 407.27C474.62 407.27 608.99 402.63 612.3 401.97C613.13 401.84 613.55 406.89 613.59 414.86C610.24 419.35 605.25 422.34 599.72 423.19Z" id="aVcpN8Zo0"></path><path d="M583.17 220.64C583.17 220.64 509.69 236.53 517.64 210.71C521.4 198.49 521.64 185.37 520.77 174.95C522.04 177.6 531.38 196.41 543.46 199.68C543.46 199.68 543.46 199.68 543.46 199.68C544.96 200.1 546.53 200.25 548.09 200.12C550.65 199.81 553.11 198.86 555.21 197.36C566.08 190.13 575.19 171.12 577.19 166.88C581.85 173.49 587.8 174.98 587.8 174.98C586.88 184.11 583.63 216.07 583.17 220.64Z" id="b15pp17EKo"></path><path d="M644.73 359.61C644.73 359.61 616.93 349.68 624.22 336.45C631.5 323.22 671.18 297.4 671.18 297.4C671.18 297.4 673.18 289.46 664.57 284.82C655.95 280.19 643.38 268.93 643.38 268.93C643.38 268.93 613.6 333.14 619.55 376.16C625.51 419.19 599.7 421.13 599.7 421.13C597.67 421.84 587.53 425.38 569.28 431.77L569.21 431.77L559.99 435L556.12 425.48L551.38 413.81C551.38 426.52 551.38 433.58 551.38 435C551.38 435 483.86 439.63 467.99 417.79C467.99 417.79 482.55 359.54 478.58 337.04C474.61 314.54 469.98 201.36 469.98 201.36C475.04 198.81 515.54 178.42 520.61 175.88C520.61 175.88 530.51 197.49 543.5 201.02C543.5 201.02 543.5 201.02 543.5 201.02C545 201.44 546.57 201.59 548.13 201.46C550.69 201.15 553.15 200.2 555.25 198.7C567.51 190.55 577.58 167.37 577.58 167.37C577.58 167.37 600.42 181.46 622.74 185.81C629.25 187.03 635.22 190.25 639.83 195C642.24 197.53 645.08 200.44 648.08 203.44C656.68 212.05 716.26 269.63 716.26 269.63C716.26 269.63 739.35 297.42 710.92 312.65C682.46 327.88 657.97 350.22 644.73 359.61Z" id="b6tY6Syw3A"></path><path d="M645.42 348.39L636.73 357.6C635.19 359.23 634.34 360.13 634.17 360.31C634.17 360.31 611.01 381.5 605.04 380.83C605.04 380.83 589.15 339.79 601.04 342.44C608.28 344.05 616.74 341.51 622.26 339.26C622.26 339.26 622.26 339.26 622.26 339.26C624.28 338.45 626.26 337.52 628.17 336.48C630.47 338.07 636.22 342.04 645.42 348.39Z" id="e60uIueY1x"></path><path d="M571.31 157.8C569.23 158 567.21 157.03 566.06 155.29C564.96 153.36 565.42 150.94 564.69 148.87C563.96 146.79 562.3 145.36 561.26 143.51C558.6 138.85 559.72 131.8 554.85 129.3C552.61 128.16 549.9 128.54 547.41 128.96C542.5 129.77 537.56 131.38 532.73 132.05C527.21 132.83 522.25 129.24 516.8 129.16C511.94 129.08 507.07 131.93 502.46 131.11C503.3 109.56 521.46 92.77 543.01 93.62C563.95 94.44 580.51 111.65 580.53 132.61C580.54 141.83 577.27 150.76 571.31 157.8Z" id="b3hWWb254n"></path><path d="M554.85 126.66C559.72 129.15 558.6 136.21 561.26 140.86C562.3 142.71 564 144.22 564.7 146.22C565.4 148.22 564.97 150.71 566.07 152.64C567.66 155.43 571.97 155.84 574.79 154.18C577.62 152.52 579.2 149.48 580.27 146.46C581.21 143.8 582 140.86 584.27 139.12C585.09 138.65 585.83 138.05 586.46 137.33C586.92 136.39 587.11 135.33 586.98 134.28C586.98 127.52 585.93 122.29 587.46 115.74C589.9 105.19 592.14 91.98 584.39 84.16C580.42 80.2 575.31 77.59 569.78 76.68C564.78 75.86 557.43 82.84 552.37 82.68C539.51 82.17 528.66 70.26 516.4 74.1C511.04 75.79 506.39 79.21 503.19 83.83C497.19 92.66 497.73 104.07 498.6 114.61C498.59 115.41 498.82 116.2 499.27 116.86C499.72 117.4 500.45 117.69 500.89 118.24C501.36 118.97 501.54 119.84 501.39 120.7C501.26 122.41 500.86 124.1 500.2 125.69C499.87 126.23 499.8 126.9 500.02 127.49C500.27 127.83 500.62 128.07 501.02 128.17C506.02 129.97 511.41 126.5 516.76 126.59C522.11 126.68 527.18 130.26 532.7 129.48C537.56 128.73 542.5 127.12 547.41 126.31C549.9 125.9 552.61 125.51 554.85 126.66Z" id="a28j2R88PM"></path><path d="M569.31 431.84L569.24 431.84L559.68 435.4L556.14 425.55L541.15 383.77L543.5 201.02C543.5 201.02 543.5 201.02 543.5 201.02C545 201.44 546.57 201.59 548.13 201.46C550.69 201.15 553.15 200.2 555.25 198.7C555.25 198.7 555.25 198.7 555.25 198.7L552.41 378.56L569.31 431.84Z" id="b1EbKDuNFA"></path><path d="M550.74 206.08C549.65 206.08 548.75 206.97 548.75 208.07C548.75 209.17 549.65 210.06 550.74 210.06C551.84 210.06 552.73 209.17 552.73 208.07C552.73 206.97 551.84 206.08 550.74 206.08Z" id="a7bqIHFJR1"></path><path d="M546.77 273.59C545.67 273.59 544.78 274.48 544.78 275.58C544.78 276.68 545.67 277.57 546.77 277.57C547.86 277.57 548.75 276.68 548.75 275.58C548.75 274.48 547.86 273.59 546.77 273.59Z" id="aDCqkvO63"></path><path d="M543.46 343.76C542.36 343.76 541.47 344.65 541.47 345.75C541.47 346.84 542.36 347.73 543.46 347.73C544.56 347.73 545.45 346.84 545.45 345.75C545.45 344.65 544.56 343.76 543.46 343.76Z" id="b2zhLEpxHu"></path><path d="M547.44 378.83C546.34 378.83 545.45 379.72 545.45 380.82C545.45 381.92 546.34 382.81 547.44 382.81C548.53 382.81 549.42 381.92 549.42 380.82C549.42 379.72 548.53 378.83 547.44 378.83Z" id="c15nf2VTZL"></path><path d="M573.25 283.52L573.25 241.17L594.43 235.2L615.61 241.17L615.61 283.52L615.61 283.52L573.25 283.52Z" id="c16jcjRIj6"></path><path d="M548.75 237.19C547.66 237.19 546.77 238.08 546.77 239.18C546.77 240.28 547.66 241.17 548.75 241.17C549.85 241.17 550.74 240.28 550.74 239.18C550.74 238.08 549.85 237.19 548.75 237.19Z" id="b2DPcjmpWb"></path><path d="M595.75 239.18C594.65 239.18 593.76 240.07 593.76 241.17C593.76 242.26 594.65 243.15 595.75 243.15C596.85 243.15 597.74 242.26 597.74 241.17C597.74 240.07 596.85 239.18 595.75 239.18Z" id="d2ao04laFR"></path><path d="M544.79 309.99C543.69 309.99 542.8 310.88 542.8 311.98C542.8 313.08 543.69 313.97 544.79 313.97C545.89 313.97 546.78 313.08 546.78 311.98C546.78 310.88 545.89 309.99 544.79 309.99Z" id="c6GEgF2GGz"></path><path d="M479.26 196.82C479.26 196.82 460.72 199.47 454.77 233.22C454.77 233.22 442.86 313.97 442.86 313.97C442.86 313.97 432.92 357.66 482.55 347.04C482.81 345.52 484.93 333.34 485.19 331.82C485.19 331.82 480.2 349.35 481.56 314.28C481.56 314.28 483.21 256.32 483.21 256.32C482.42 244.42 480.05 208.72 479.26 196.82Z" id="b16rfspfFn"></path><path d="M479.26 196.82C479.26 196.82 460.72 199.47 454.77 233.22C454.77 233.22 442.86 313.97 442.86 313.97C442.86 313.97 432.92 357.66 482.55 347.04C482.81 345.52 484.93 333.34 485.19 331.82C485.19 331.82 477.58 348.69 478.91 313.61C478.91 313.61 483.21 256.35 483.21 256.35C482.42 244.45 480.05 208.73 479.26 196.82Z" id="ebKPYZbub"></path><path d="M645.42 348.39C640.2 353.92 637.31 356.98 636.73 357.6C624.37 352.6 621.97 339.5 621.97 339.5C621.99 339.48 622.1 339.4 622.29 339.26C622.29 339.26 622.29 339.26 622.29 339.26C624.31 338.45 626.29 337.52 628.2 336.48C630.5 338.07 636.24 342.04 645.42 348.39Z" id="gzFORmwBV"></path><path d="M633.15 331.52C627.22 335.91 623.93 338.35 623.27 338.84C623.27 338.84 626.54 356.67 645.06 358.66C645.59 357.73 648.24 353.1 653.01 344.76L633.15 331.52Z" id="a3d6lAV5Cy"></path><path d="M433.05 160.84L471.41 205.47L537.24 202.08L557.2 243.34L494.53 325.2L465.17 280.61L395.34 286.58L349.24 235.59L349.24 235.59L433.05 160.84Z" id="c214sPMxGk"></path><path d="M528.2 272.09L504.67 302.67L493.8 316.81L468.65 277.68L442.27 280L399.32 283.76L367.32 248.38L356.32 236.22L400.96 196.41L434.49 166.51L451.77 186.62L470.25 208.13L488.72 207.18L531.65 204.96L548.41 239.62L550.25 243.44L550.25 243.44L528.2 272.09Z" id="bOxkoQ0Fz"></path><path d="M367.32 248.38L356.32 236.22L400.96 196.41L411.61 213.32L411.61 213.32L367.32 248.38Z" id="bCtD1GjSs"></path><path d="M458.64 217.17L435.34 189.82L451.77 186.62L470.25 208.13L488.72 207.18L495.5 233.35L462.59 242.01L462.13 239.15L462.13 239.15L458.64 217.17Z" id="ebLeREYVw"></path><path d="M528.2 272.09L516.75 254.82L548.41 239.62L550.25 243.44L550.25 243.44L528.2 272.09Z" id="bo02seVBk"></path><path d="M493.8 316.81L468.65 277.68L442.27 280L437.48 246.91L462.13 239.15L465.09 261.75L481.77 264.34L504.67 302.67L504.67 302.67L493.8 316.81Z" id="d3ZRRmsPHv"></path><path d="M456.81 247.89C453.74 244.13 449.98 240.99 445.74 238.63C445.42 238.45 445.31 238.05 445.48 237.73C445.66 237.41 446.06 237.29 446.38 237.47C446.38 237.47 446.38 237.47 446.38 237.47C450.77 239.91 454.65 243.16 457.82 247.05C458.06 247.33 458.02 247.75 457.74 247.98C457.65 248.05 457.55 248.1 457.43 248.12C457.21 248.17 456.96 248.08 456.81 247.89Z" id="c9X73Jamn"></path><path d="M448.79 249.45C448.76 249.28 448.79 249.1 448.88 248.96C449.74 247.54 456.6 236.22 457.45 234.8C457.65 234.49 458.05 234.39 458.36 234.58C458.68 234.77 458.77 235.18 458.58 235.49C457.73 236.91 450.87 248.23 450.01 249.65C449.91 249.81 449.75 249.92 449.57 249.96C449.21 250.03 448.87 249.8 448.79 249.45Z" id="fgmIMduSG"></path><path d="M470.11 207.98L531.52 204.99L468.82 277.42L399.34 282.88L399.34 282.88L470.11 207.98Z" id="j44fwfvDd7"></path><path d="M460.72 319.23C460.72 319.23 477.27 278.63 485.21 282.84C485.21 282.84 516.32 312.37 500.44 323.44C500.44 323.44 473.3 339.79 473.3 339.79C472.46 339.68 468.27 339.16 460.72 338.21C460.72 328.09 460.72 321.76 460.72 319.23Z" id="f1QpBg7Zpx"></path><path d="M451.79 319.6C451.79 319.6 466.97 307.68 479.23 343.76C478.46 343.87 474.6 344.42 467.67 345.42L454.43 337.47C453.02 327.94 452.14 321.98 451.79 319.6Z" id="b2lr0Cjcuw"></path><path d="M451.79 319.6C451.79 319.6 466.97 307.68 479.23 343.76C478.46 343.87 474.6 344.42 467.67 345.42L454.43 337.47C453.02 327.94 452.14 321.98 451.79 319.6Z" id="a2V5nK6dor"></path></defs><g><g><g><use xlink:href="#d7PdHGpSg" opacity="1" fill="#66fcf1" fill-opacity="1"></use><g><use xlink:href="#d7PdHGpSg" opacity="1" fill-opacity="0" stroke="#000000" stroke-width="1" stroke-opacity="0"></use></g></g><g><use xlink:href="#dlebZBGL" opacity="1" fill="#000000" fill-opacity="0"></use><g><use xlink:href="#dlebZBGL" opacity="1" fill-opacity="0" stroke="#535461" stroke-width="1" stroke-opacity="1"></use></g></g><g><use xlink:href="#bd7elml0D" opacity="1" fill="#66fcf1" fill-opacity="1"></use><g><use xlink:href="#bd7elml0D" opacity="1" fill-opacity="0" stroke="#000000" stroke-width="1" stroke-opacity="0"></use></g></g><g><use xlink:href="#b7xro9eLS2" opacity="1" fill="#000000" fill-opacity="0"></use><g><use xlink:href="#b7xro9eLS2" opacity="1" fill-opacity="0" stroke="#535461" stroke-width="1" stroke-opacity="1"></use></g></g><g><use xlink:href="#a1xQ5AcSf5" opacity="1" fill="#000000" fill-opacity="0"></use><g><use xlink:href="#a1xQ5AcSf5" opacity="1" fill-opacity="0" stroke="#535461" stroke-width="2" stroke-opacity="1"></use></g></g><g><use xlink:href="#b1YU5Afd9s" opacity="1" fill="#66fcf1" fill-opacity="1"></use><g><use xlink:href="#b1YU5Afd9s" opacity="1" fill-opacity="0" stroke="#000000" stroke-width="1" stroke-opacity="0"></use></g></g><g><use xlink:href="#f30jAGLOQP" opacity="1" fill="#66fcf1" fill-opacity="1"></use><g><use xlink:href="#f30jAGLOQP" opacity="1" fill-opacity="0" stroke="#000000" stroke-width="1" stroke-opacity="0"></use></g></g><g><use xlink:href="#diVbeBaOs" opacity="1" fill="#66fcf1" fill-opacity="1"></use><g><use xlink:href="#diVbeBaOs" opacity="1" fill-opacity="0" stroke="#000000" stroke-width="1" stroke-opacity="0"></use></g></g><g><use xlink:href="#c2Cv6ovZY2" opacity="1" fill="#66fcf1" fill-opacity="1"></use><g><use xlink:href="#c2Cv6ovZY2" opacity="1" fill-opacity="0" stroke="#000000" stroke-width="1" stroke-opacity="0"></use></g></g><g><use xlink:href="#b6QGCXYb7z" opacity="1" fill="#66fcf1" fill-opacity="1"></use><g><use xlink:href="#b6QGCXYb7z" opacity="1" fill-opacity="0" stroke="#000000" stroke-width="1" stroke-opacity="0"></use></g></g><g><use xlink:href="#fPtHqy3gZ" opacity="1" fill="#66fcf1" fill-opacity="1"></use><g><use xlink:href="#fPtHqy3gZ" opacity="1" fill-opacity="0" stroke="#000000" stroke-width="1" stroke-opacity="0"></use></g></g><g><use xlink:href="#dfbbPI1DW" opacity="1" fill="#66fcf1" fill-opacity="1"></use><g><use xlink:href="#dfbbPI1DW" opacity="1" fill-opacity="0" stroke="#000000" stroke-width="1" stroke-opacity="0"></use></g></g><g><use xlink:href="#f1fKrWcw6g" opacity="1" fill="#000000" fill-opacity="1"></use><g><use xlink:href="#f1fKrWcw6g" opacity="1" fill-opacity="0" stroke="#000000" stroke-width="1" stroke-opacity="0"></use></g></g><g><use xlink:href="#g73ruFOmJ" opacity="1" fill="#000000" fill-opacity="1"></use><g><use xlink:href="#g73ruFOmJ" opacity="1" fill-opacity="0" stroke="#000000" stroke-width="1" stroke-opacity="0"></use></g></g><g><use xlink:href="#dP1nqNNp7" opacity="1" fill="#000000" fill-opacity="1"></use><g><use xlink:href="#dP1nqNNp7" opacity="1" fill-opacity="0" stroke="#000000" stroke-width="1" stroke-opacity="0"></use></g></g><g><use xlink:href="#b6mgmj1UOR" opacity="1" fill="#000000" fill-opacity="1"></use><g><use xlink:href="#b6mgmj1UOR" opacity="1" fill-opacity="0" stroke="#000000" stroke-width="1" stroke-opacity="0"></use></g></g><g><use xlink:href="#aaGnlpkeA" opacity="1" fill="#000000" fill-opacity="1"></use><g><use xlink:href="#aaGnlpkeA" opacity="1" fill-opacity="0" stroke="#000000" stroke-width="1" stroke-opacity="0"></use></g></g><g><use xlink:href="#ack3DdZ2b" opacity="1" fill="#000000" fill-opacity="1"></use><g><use xlink:href="#ack3DdZ2b" opacity="1" fill-opacity="0" stroke="#000000" stroke-width="1" stroke-opacity="0"></use></g></g><g><use xlink:href="#d2OaEi9CF" opacity="1" fill="#000000" fill-opacity="1"></use><g><use xlink:href="#d2OaEi9CF" opacity="1" fill-opacity="0" stroke="#000000" stroke-width="1" stroke-opacity="0"></use></g></g><g><use xlink:href="#acACPGvah" opacity="1" fill="#000000" fill-opacity="0"></use><g><use xlink:href="#acACPGvah" opacity="1" fill-opacity="0" stroke="#535461" stroke-width="2" stroke-opacity="1"></use></g></g><g><use xlink:href="#a14pZXvUzV" opacity="1" fill="#66fcf1" fill-opacity="1"></use><g><use xlink:href="#a14pZXvUzV" opacity="1" fill-opacity="0" stroke="#000000" stroke-width="1" stroke-opacity="0"></use></g></g><g><use xlink:href="#c2jfHOtYQM" opacity="1" fill="#66fcf1" fill-opacity="1"></use><g><use xlink:href="#c2jfHOtYQM" opacity="1" fill-opacity="0" stroke="#000000" stroke-width="1" stroke-opacity="0"></use></g></g><g><use xlink:href="#a5wq2pZx2a" opacity="1" fill="#66fcf1" fill-opacity="1"></use><g><use xlink:href="#a5wq2pZx2a" opacity="1" fill-opacity="0" stroke="#000000" stroke-width="1" stroke-opacity="0"></use></g></g><g><use xlink:href="#a7z5Ir3D4" opacity="1" fill="#66fcf1" fill-opacity="1"></use><g><use xlink:href="#a7z5Ir3D4" opacity="1" fill-opacity="0" stroke="#000000" stroke-width="1" stroke-opacity="0"></use></g></g><g><use xlink:href="#e1l4p1GBM" opacity="1" fill="#66fcf1" fill-opacity="1"></use><g><use xlink:href="#e1l4p1GBM" opacity="1" fill-opacity="0" stroke="#000000" stroke-width="1" stroke-opacity="0"></use></g></g><g><use xlink:href="#i1MQIJCIy" opacity="1" fill="#66fcf1" fill-opacity="1"></use><g><use xlink:href="#i1MQIJCIy" opacity="1" fill-opacity="0" stroke="#000000" stroke-width="1" stroke-opacity="0"></use></g></g><g><use xlink:href="#h20HdRipDt" opacity="1" fill="#66fcf1" fill-opacity="1"></use><g><use xlink:href="#h20HdRipDt" opacity="1" fill-opacity="0" stroke="#000000" stroke-width="1" stroke-opacity="0"></use></g></g><g><use xlink:href="#a1XVGIscZH" opacity="1" fill="#66fcf1" fill-opacity="1"></use><g><use xlink:href="#a1XVGIscZH" opacity="1" fill-opacity="0" stroke="#000000" stroke-width="1" stroke-opacity="0"></use></g></g><g><use xlink:href="#c15URVpHTD" opacity="1" fill="url(#gradientjH1NnKDnw)"></use><g><use xlink:href="#c15URVpHTD" opacity="1" fill-opacity="0" stroke="#000000" stroke-width="1" stroke-opacity="0"></use></g></g><g><use xlink:href="#b1cToaRXZ" opacity="1" fill="#5b5877" fill-opacity="1"></use><g><use xlink:href="#b1cToaRXZ" opacity="1" fill-opacity="0" stroke="#000000" stroke-width="1" stroke-opacity="0"></use></g></g><g><use xlink:href="#coSbMN18Y" opacity="1" fill="#5b5877" fill-opacity="1"></use><g><use xlink:href="#coSbMN18Y" opacity="1" fill-opacity="0" stroke="#000000" stroke-width="1" stroke-opacity="0"></use></g></g><g><use xlink:href="#l1rkYqu9QK" opacity="1" fill="#000000" fill-opacity="1"></use><g><use xlink:href="#l1rkYqu9QK" opacity="1" fill-opacity="0" stroke="#000000" stroke-width="1" stroke-opacity="0"></use></g></g><g><use xlink:href="#b1stAmSj33" opacity="1" fill="#000000" fill-opacity="1"></use><g><use xlink:href="#b1stAmSj33" opacity="1" fill-opacity="0" stroke="#000000" stroke-width="1" stroke-opacity="0"></use></g></g><g><use xlink:href="#a1yqIZ8IEi" opacity="1" fill="#5f5d7e" fill-opacity="1"></use><g><use xlink:href="#a1yqIZ8IEi" opacity="1" fill-opacity="0" stroke="#000000" stroke-width="1" stroke-opacity="0"></use></g></g><g><use xlink:href="#g1yluYtrnL" opacity="1" fill="#000000" fill-opacity="1"></use><g><use xlink:href="#g1yluYtrnL" opacity="1" fill-opacity="0" stroke="#000000" stroke-width="1" stroke-opacity="0"></use></g></g><g><use xlink:href="#e2PDFFVjj3" opacity="1" fill="#000000" fill-opacity="1"></use><g><use xlink:href="#e2PDFFVjj3" opacity="1" fill-opacity="0" stroke="#000000" stroke-width="1" stroke-opacity="0"></use></g></g><g><use xlink:href="#a60gGYc1Ji" opacity="1" fill="#fdc2cc" fill-opacity="1"></use><g><use xlink:href="#a60gGYc1Ji" opacity="1" fill-opacity="0" stroke="#000000" stroke-width="1" stroke-opacity="0"></use></g></g><g><use xlink:href="#a2Gqv7UwP" opacity="1" fill="#000000" fill-opacity="1"></use><g><use xlink:href="#a2Gqv7UwP" opacity="1" fill-opacity="0" stroke="#000000" stroke-width="1" stroke-opacity="0"></use></g></g><g><use xlink:href="#aIUuwxss" opacity="1" fill="#fdc2cc" fill-opacity="1"></use><g><use xlink:href="#aIUuwxss" opacity="1" fill-opacity="0" stroke="#000000" stroke-width="1" stroke-opacity="0"></use></g></g><g><use xlink:href="#aVcpN8Zo0" opacity="1" fill="#000000" fill-opacity="1"></use><g><use xlink:href="#aVcpN8Zo0" opacity="1" fill-opacity="0" stroke="#000000" stroke-width="1" stroke-opacity="0"></use></g></g><g><use xlink:href="#b15pp17EKo" opacity="1" fill="#000000" fill-opacity="1"></use><g><use xlink:href="#b15pp17EKo" opacity="1" fill-opacity="0" stroke="#000000" stroke-width="1" stroke-opacity="0"></use></g></g><g><use xlink:href="#b6tY6Syw3A" opacity="1" fill="#d39999" fill-opacity="1"></use><g><use xlink:href="#b6tY6Syw3A" opacity="1" fill-opacity="0" stroke="#000000" stroke-width="1" stroke-opacity="0"></use></g></g><g><use xlink:href="#e60uIueY1x" opacity="1" fill="#fdc2cc" fill-opacity="1"></use><g><use xlink:href="#e60uIueY1x" opacity="1" fill-opacity="0" stroke="#000000" stroke-width="1" stroke-opacity="0"></use></g></g><g><use xlink:href="#b3hWWb254n" opacity="1" fill="#000000" fill-opacity="1"></use><g><use xlink:href="#b3hWWb254n" opacity="1" fill-opacity="0" stroke="#000000" stroke-width="1" stroke-opacity="0"></use></g></g><g><use xlink:href="#a28j2R88PM" opacity="1" fill="#865a61" fill-opacity="1"></use><g><use xlink:href="#a28j2R88PM" opacity="1" fill-opacity="0" stroke="#000000" stroke-width="1" stroke-opacity="0"></use></g></g><g><use xlink:href="#b1EbKDuNFA" opacity="1" fill="#000000" fill-opacity="1"></use><g><use xlink:href="#b1EbKDuNFA" opacity="1" fill-opacity="0" stroke="#000000" stroke-width="1" stroke-opacity="0"></use></g></g><g><use xlink:href="#a7bqIHFJR1" opacity="1" fill="#ffffff" fill-opacity="1"></use><g><use xlink:href="#a7bqIHFJR1" opacity="1" fill-opacity="0" stroke="#000000" stroke-width="1" stroke-opacity="0"></use></g></g><g><use xlink:href="#aDCqkvO63" opacity="1" fill="#ffffff" fill-opacity="1"></use><g><use xlink:href="#aDCqkvO63" opacity="1" fill-opacity="0" stroke="#000000" stroke-width="1" stroke-opacity="0"></use></g></g><g><use xlink:href="#b2zhLEpxHu" opacity="1" fill="#ffffff" fill-opacity="1"></use><g><use xlink:href="#b2zhLEpxHu" opacity="1" fill-opacity="0" stroke="#000000" stroke-width="1" stroke-opacity="0"></use></g></g><g><use xlink:href="#c15nf2VTZL" opacity="1" fill="#ffffff" fill-opacity="1"></use><g><use xlink:href="#c15nf2VTZL" opacity="1" fill-opacity="0" stroke="#000000" stroke-width="1" stroke-opacity="0"></use></g></g><g><use xlink:href="#c16jcjRIj6" opacity="1" fill="#000000" fill-opacity="1"></use><g><use xlink:href="#c16jcjRIj6" opacity="1" fill-opacity="0" stroke="#000000" stroke-width="1" stroke-opacity="0"></use></g></g><g><use xlink:href="#b2DPcjmpWb" opacity="1" fill="#ffffff" fill-opacity="1"></use><g><use xlink:href="#b2DPcjmpWb" opacity="1" fill-opacity="0" stroke="#000000" stroke-width="1" stroke-opacity="0"></use></g></g><g><use xlink:href="#d2ao04laFR" opacity="1" fill="#ffffff" fill-opacity="1"></use><g><use xlink:href="#d2ao04laFR" opacity="1" fill-opacity="0" stroke="#000000" stroke-width="1" stroke-opacity="0"></use></g></g><g><use xlink:href="#c6GEgF2GGz" opacity="1" fill="#ffffff" fill-opacity="1"></use><g><use xlink:href="#c6GEgF2GGz" opacity="1" fill-opacity="0" stroke="#000000" stroke-width="1" stroke-opacity="0"></use></g></g><g><use xlink:href="#b16rfspfFn" opacity="1" fill="#d39999" fill-opacity="1"></use><g><use xlink:href="#b16rfspfFn" opacity="1" fill-opacity="0" stroke="#000000" stroke-width="1" stroke-opacity="0"></use></g></g><g><use xlink:href="#ebKPYZbub" opacity="1" fill="#d39999" fill-opacity="1"></use><g><use xlink:href="#ebKPYZbub" opacity="1" fill-opacity="0" stroke="#000000" stroke-width="1" stroke-opacity="0"></use></g></g><g><use xlink:href="#gzFORmwBV" opacity="1" fill="#000000" fill-opacity="1"></use><g><use xlink:href="#gzFORmwBV" opacity="1" fill-opacity="0" stroke="#000000" stroke-width="1" stroke-opacity="0"></use></g></g><g><use xlink:href="#a3d6lAV5Cy" opacity="1" fill="#d39999" fill-opacity="1"></use><g><use xlink:href="#a3d6lAV5Cy" opacity="1" fill-opacity="0" stroke="#000000" stroke-width="1" stroke-opacity="0"></use></g></g><g><use xlink:href="#c214sPMxGk" opacity="1" fill="#f2f5fb" fill-opacity="1"></use><g><use xlink:href="#c214sPMxGk" opacity="1" fill-opacity="0" stroke="#000000" stroke-width="1" stroke-opacity="0"></use></g></g><g><use xlink:href="#bOxkoQ0Fz" opacity="1" fill="#dde0ed" fill-opacity="1"></use><g><use xlink:href="#bOxkoQ0Fz" opacity="1" fill-opacity="0" stroke="#000000" stroke-width="1" stroke-opacity="0"></use></g></g><g><use xlink:href="#bCtD1GjSs" opacity="1" fill="#abb1d1" fill-opacity="1"></use><g><use xlink:href="#bCtD1GjSs" opacity="1" fill-opacity="0" stroke="#000000" stroke-width="1" stroke-opacity="0"></use></g></g><g><use xlink:href="#ebLeREYVw" opacity="1" fill="#abb1d1" fill-opacity="1"></use><g><use xlink:href="#ebLeREYVw" opacity="1" fill-opacity="0" stroke="#000000" stroke-width="1" stroke-opacity="0"></use></g></g><g><use xlink:href="#bo02seVBk" opacity="1" fill="#abb1d1" fill-opacity="1"></use><g><use xlink:href="#bo02seVBk" opacity="1" fill-opacity="0" stroke="#000000" stroke-width="1" stroke-opacity="0"></use></g></g><g><use xlink:href="#d3ZRRmsPHv" opacity="1" fill="#abb1d1" fill-opacity="1"></use><g><use xlink:href="#d3ZRRmsPHv" opacity="1" fill-opacity="0" stroke="#000000" stroke-width="1" stroke-opacity="0"></use></g></g><g><use xlink:href="#c9X73Jamn" opacity="1" fill="#d7666f" fill-opacity="1"></use><g><use xlink:href="#c9X73Jamn" opacity="1" fill-opacity="0" stroke="#000000" stroke-width="1" stroke-opacity="0"></use></g></g><g><use xlink:href="#fgmIMduSG" opacity="1" fill="#d7666f" fill-opacity="1"></use><g><use xlink:href="#fgmIMduSG" opacity="1" fill-opacity="0" stroke="#000000" stroke-width="1" stroke-opacity="0"></use></g></g><g><use xlink:href="#j44fwfvDd7" opacity="1" fill="#ffffff" fill-opacity="1"></use><g><use xlink:href="#j44fwfvDd7" opacity="1" fill-opacity="0" stroke="#000000" stroke-width="1" stroke-opacity="0"></use></g></g><g><use xlink:href="#f1QpBg7Zpx" opacity="1" fill="#fdc2cc" fill-opacity="1"></use><g><use xlink:href="#f1QpBg7Zpx" opacity="1" fill-opacity="0" stroke="#000000" stroke-width="1" stroke-opacity="0"></use></g></g><g><use xlink:href="#b2lr0Cjcuw" opacity="1" fill="#d39999" fill-opacity="1"></use><g><use xlink:href="#b2lr0Cjcuw" opacity="1" fill-opacity="0" stroke="#000000" stroke-width="1" stroke-opacity="0"></use></g></g><g><use xlink:href="#a2V5nK6dor" opacity="1" fill="#d39999" fill-opacity="1"></use><g><use xlink:href="#a2V5nK6dor" opacity="1" fill-opacity="0" stroke="#000000" stroke-width="1" stroke-opacity="0"></use></g></g></g></g></svg>